<svg width="45" height="49" viewBox="0 0 45 49" fill="none" xmlns="http://www.w3.org/2000/svg">
<rect width="45" height="48.375" fill="white"/>
<circle cx="22" cy="25" r="5.25" stroke="#0F0E0D" stroke-width="1.5" stroke-linejoin="round"/>
<circle cx="22" cy="25" r="0.75" fill="#0F0E0D" stroke="#0F0E0D" stroke-width="0.5" stroke-linejoin="round"/>
<path d="M3 6H22C34.5 6 41 14 41 25C41 35.5 34 43.5 22.5 44C15.0785 44.3676 7.5 39.5 4.5 33.5" stroke="#0F0E0D" stroke-width="1.5" stroke-linecap="round"/>
<mask id="path-4-inside-1_1938_2213" fill="white">
<path d="M39.0311 34.4616C39.5049 34.9162 39.8845 35.4596 40.1483 36.0609C40.4121 36.6622 40.5549 37.3096 40.5685 37.9661C40.5821 38.6225 40.4662 39.2752 40.2276 39.8869C39.9889 40.4986 39.6321 41.0574 39.1776 41.5312C38.723 42.005 38.1795 42.3846 37.5782 42.6484C36.9769 42.9122 36.3296 43.0549 35.6731 43.0685C35.0166 43.0821 34.3639 42.9663 33.7522 42.7276C33.1405 42.489 32.5818 42.1322 32.108 41.6776L35.5696 38.0696L39.0311 34.4616Z"/>
</mask>
<path d="M39.0311 34.4616C39.5049 34.9162 39.8845 35.4596 40.1483 36.0609C40.4121 36.6622 40.5549 37.3096 40.5685 37.9661C40.5821 38.6225 40.4662 39.2752 40.2276 39.8869C39.9889 40.4986 39.6321 41.0574 39.1776 41.5312C38.723 42.005 38.1795 42.3846 37.5782 42.6484C36.9769 42.9122 36.3296 43.0549 35.6731 43.0685C35.0166 43.0821 34.3639 42.9663 33.7522 42.7276C33.1405 42.489 32.5818 42.1322 32.108 41.6776L35.5696 38.0696L39.0311 34.4616Z" stroke="#0F0E0D" stroke-width="2" mask="url(#path-4-inside-1_1938_2213)"/>
<rect x="6" y="2.5" width="1" height="3" rx="0.5" fill="#0F0E0D" stroke="#0F0E0D"/>
<rect x="11" y="2.5" width="1" height="3" rx="0.5" fill="#0F0E0D" stroke="#0F0E0D"/>
<rect x="16" y="2.5" width="1" height="3" rx="0.5" fill="#0F0E0D" stroke="#0F0E0D"/>
<rect x="21" y="2.5" width="1" height="3" rx="0.5" fill="#0F0E0D" stroke="#0F0E0D"/>
</svg>
